<svg width="16" height="16" viewBox="0 0 16 16" fill="none" xmlns="http://www.w3.org/2000/svg">
    <g clip-path="url(#clip0)">
        <path d="M5.646 11.255l-.035-.022-.028.028-.443.444c-1.447 1.447-3.908.895-4.594-1.023l-.012-.033a7.95 7.95 0 0 1 1.876-8.27 7.948 7.948 0 0 1 11.232-.01c3.106 3.094 3.112 8.145.014 11.248a7.94 7.94 0 0 1-8.274 1.88.575.575 0 0 1-.351-.734h0a.575.575 0 0 1 .733-.35 6.793 6.793 0 0 0 7.078-1.609c2.65-2.652 2.643-6.976-.012-9.621a6.796 6.796 0 0 0-9.607.01 6.8 6.8 0 0 0-1.604 7.074h0l.01.027h0c.413 1.155 1.87 1.425 2.697.598l.444-.444.029-.028-.023-.034a3.038 3.038 0 0 1 .39-3.81s0 0 0 0l1.739-1.739h0a.575.575 0 0 1 .813 0h0l.576.576.035.036.036-.036 1.742-1.742h0a.575.575 0 1 1 .814.813s0 0 0 0L9.178 6.227l-.036.035.036.035.556.556.035.036.036-.036 1.718-1.718h0a.575.575 0 0 1 .813 0h0a.575.575 0 0 1 0 .813l-1.718 1.718-.036.036.036.035.576.576a.575.575 0 0 1 0 .813h0l-1.738 1.739a3.038 3.038 0 0 1-3.81.39zm1.7-5.163l-.035-.035-.035.035L5.98 7.388a1.885 1.885 0 0 0 0 2.664 1.885 1.885 0 0 0 2.663 0l1.296-1.297.035-.035-.035-.035-2.592-2.593z" fill="#fff" stroke="#222" stroke-width=".1"></path>
    </g>
    <clipPath id="clip0">
        <path fill="#fff" d="M0 0h16v16H0z"></path>
    </clipPath>
</svg>